<?xml version="1.0" encoding="UTF-8" standalone="no"?>
<svg width="394px" height="79px" viewBox="0 0 394 79" version="1.1" xmlns="http://www.w3.org/2000/svg" xmlns:xlink="http://www.w3.org/1999/xlink" xmlns:sketch="http://www.bohemiancoding.com/sketch/ns">
    <!-- Generator: Sketch 3.3.2 (12043) - http://www.bohemiancoding.com/sketch -->
    <title>logo_white_2</title>
    <desc>Created with Sketch.</desc>
    <defs></defs>
    <g id="Page-1" stroke="none" stroke-width="1" fill="none" fill-rule="evenodd" sketch:type="MSPage">
        <g id="Group-Copy-+-INSTITUT--Copy" sketch:type="MSLayerGroup" fill="#FFFFFF">
            <g id="Group-Copy" transform="translate(0.000000, 0.167154)" sketch:type="MSShapeGroup">
                <path d="M110.669224,0.742364982 C120.851894,1.7811549 129.739154,8.40395893 135.598564,16.568345 C143.25995,27.9051098 144.882923,43.2881539 139.130916,55.786129 C133.880122,67.8052546 122.14937,76.8794549 109.058185,78.2441763 C101.814475,78.4716299 94.5707655,78.2322051 87.3151224,78.3040325 C87.3151224,73.7429899 87.3509232,69.169976 87.327056,64.6089333 C93.8308809,64.4173935 100.370507,65.0518692 106.826597,64.2378249 C117.125314,62.7773335 125.502718,54.0143854 127.4837,43.9346009 C128.772531,35.0040554 125.204377,25.2355232 117.519124,20.1956309 C109.046251,13.2283689 97.4348352,15.1317961 87.3031888,14.9163138 C87.3389896,10.0320476 87.327056,5.13581026 87.3389896,0.25154412 C95.1197307,0.25154412 102.924302,-0.0477368942 110.669224,0.742364982 Z" id="Shape"></path>
                <path d="M0.162405817,0.19243855 C4.86425353,0.204702668 9.55416761,0.143382078 14.2560153,0.241495022 C14.1366791,26.2782175 14.2440817,52.302676 14.2082808,78.3393985 C9.50643312,78.3393985 4.80458541,78.3516626 0.102737698,78.3393985 C0.186273064,52.2904118 0.0669368275,26.2414252 0.162405817,0.19243855 L0.162405817,0.19243855 Z" id="Shape"></path>
                <path d="M78.4126392,0.196590877 L78.4126392,14.885303 C70.9302571,15.1247278 63.2450035,14.0952012 55.9535595,16.226082 C45.6548423,19.8533679 36.7881599,30.1845485 38.2559956,41.6529969 C39.0316812,53.7080361 49.5810045,64.0272455 61.5862298,64.601865 C67.1950329,64.7096062 72.7919024,64.5659513 78.4007055,64.601865 C78.4126392,69.1868502 78.4126392,73.7598641 78.4126392,78.3448492 C71.2882658,78.237108 64.1758262,78.4406191 57.0514529,78.2730218 C43.793197,76.8005592 31.6925027,67.7981863 26.51331,55.443866 C18.3626451,37.9179699 25.5228192,14.7416481 42.4685648,5.32028183 C53.1133571,-1.65895141 66.4074138,0.663469259 78.4126392,0.196590877 Z" id="Shape"></path>
                <path d="M87.3031888,24.8730609 C92.1363063,24.9209459 96.9574903,24.9448884 101.790608,24.8730609 C101.707072,34.4620246 101.754807,44.0509883 101.766741,53.6519232 C96.9574903,53.6160095 92.1482399,53.6160095 87.3509232,53.6519232 C87.3389896,44.0509883 87.4105914,34.4620246 87.3031888,24.8730609 L87.3031888,24.8730609 Z" id="Shape"></path>
                <path d="M78.4126392,32.0580471 C78.3410374,36.8465433 78.3649047,41.6350395 78.352971,46.4235357 C68.8060721,46.4714207 59.2591732,46.3756508 49.7122743,46.4714207 C49.724208,41.6948957 49.724208,36.9063995 49.7003407,32.1298745 C59.2711069,32.0221333 68.841873,32.1418457 78.4126392,32.0580471 Z" id="Shape"></path>
            </g>
            <path d="M180.085943,18.3975059 L180.085943,5.23868455 C180.085943,4.55510599 180.241645,4.04242977 180.553053,3.70064049 C180.864461,3.35885121 181.267007,3.18795913 181.760702,3.18795913 C182.269589,3.18795913 182.681628,3.35695241 182.996834,3.69494403 C183.31204,4.03293565 183.46964,4.54751067 183.46964,5.23868455 L183.46964,18.3975059 C183.46964,19.0886798 183.31204,19.6051536 182.996834,19.9469429 C182.681628,20.2887322 182.269589,20.4596243 181.760702,20.4596243 C181.274602,20.4596243 180.873955,20.2868334 180.558749,19.9412465 C180.243544,19.5956595 180.085943,19.0810845 180.085943,18.3975059 L180.085943,18.3975059 Z M191.661149,5.21589871 L198.166506,15.0593807 L198.166506,5.12475536 C198.166506,4.47915339 198.305118,3.99495917 198.582347,3.67215819 C198.859576,3.34935721 199.23364,3.18795913 199.70455,3.18795913 C200.19065,3.18795913 200.574208,3.34935721 200.855235,3.67215819 C201.136261,3.99495917 201.276773,4.47915339 201.276773,5.12475536 L201.276773,18.2607909 C201.276773,19.7266872 200.669156,20.4596243 199.453906,20.4596243 C199.150093,20.4596243 198.876666,20.4159519 198.633615,20.3286057 C198.390565,20.2412596 198.162709,20.1026471 197.95004,19.9127642 C197.737371,19.7228812 197.539896,19.5007215 197.357608,19.2462784 C197.175321,18.9918353 196.993036,18.7316996 196.810748,18.4658635 L190.464892,8.73631067 L190.464892,18.5228281 C190.464892,19.1608347 190.316786,19.6431301 190.020569,19.9697288 C189.724351,20.2963274 189.344591,20.4596243 188.881277,20.4596243 C188.402772,20.4596243 188.019214,20.2944286 187.730592,19.9640323 C187.44197,19.633636 187.297661,19.1532394 187.297661,18.5228281 L187.297661,5.63743671 C187.297661,5.09057387 187.358423,4.66144488 187.479948,4.35003687 C187.624259,4.00824759 187.863508,3.72912387 188.197702,3.51265732 C188.531896,3.29619078 188.892668,3.18795913 189.280029,3.18795913 C189.583842,3.18795913 189.843977,3.23732796 190.060444,3.33606708 C190.27691,3.43480621 190.46679,3.56772226 190.63009,3.73481924 C190.793389,3.90191622 190.960484,4.11837952 191.131378,4.38421563 C191.302273,4.65005173 191.478861,4.92727665 191.661149,5.21589871 L191.661149,5.21589871 Z M217.671183,15.161917 C217.671183,16.1720942 217.411047,17.079721 216.890768,17.8848246 C216.370489,18.6899282 215.60907,19.3203301 214.606488,19.7760491 C213.603906,20.2317682 212.415257,20.4596243 211.040504,20.4596243 C209.39232,20.4596243 208.032779,20.1482209 206.961839,19.5254049 C206.202307,19.0772812 205.585197,18.4791589 205.11049,17.7310202 C204.635782,16.9828814 204.398432,16.2556407 204.398432,15.5492762 C204.398432,15.1391291 204.540842,14.7878509 204.825667,14.4954312 C205.110491,14.2030115 205.473162,14.0568038 205.913691,14.0568038 C206.27067,14.0568038 206.57258,14.1707319 206.819428,14.3985914 C207.066275,14.6264509 207.277042,14.9644375 207.451735,15.4125612 C207.664404,15.9442334 207.894158,16.3885528 208.141006,16.7455327 C208.387854,17.1025126 208.735335,17.3968267 209.183458,17.6284839 C209.631582,17.8601411 210.22021,17.9759679 210.949361,17.9759679 C211.951943,17.9759679 212.766528,17.7424154 213.393142,17.2753034 C214.019756,16.8081914 214.333058,16.2252596 214.333058,15.5264904 C214.333058,14.9720322 214.164064,14.5220164 213.826073,14.1764295 C213.488081,13.8308425 213.051357,13.5669092 212.515887,13.3846216 C211.980417,13.202334 211.264569,13.0086563 210.368322,12.8035827 C209.168262,12.522556 208.163796,12.1940635 207.354895,11.8180952 C206.545994,11.442127 205.904199,10.9294508 205.429492,10.2800512 C204.954784,9.63065156 204.717434,8.8236612 204.717434,7.85905591 C204.717434,6.94002252 204.968076,6.12353816 205.469367,5.40957833 C205.970658,4.69561851 206.696,4.14686506 207.645414,3.76330154 C208.594829,3.37973802 209.711324,3.18795913 210.994932,3.18795913 C212.0203,3.18795913 212.90704,3.31517879 213.655179,3.56962192 C214.403318,3.82406505 215.024226,4.1620516 215.517921,4.58359171 C216.011617,5.00513182 216.372389,5.44755241 216.600249,5.91086677 C216.828108,6.37418112 216.942036,6.82609572 216.942036,7.26662412 C216.942036,7.66917594 216.799626,8.0318469 216.514802,8.35464788 C216.229977,8.67744887 215.874902,8.83884694 215.449564,8.83884694 C215.062203,8.83884694 214.767888,8.74200809 214.566613,8.5483275 C214.365337,8.35464691 214.146975,8.03754717 213.91152,7.59701877 C213.607707,6.96660744 213.243137,6.47481802 212.817799,6.12163577 C212.392462,5.76845351 211.708893,5.59186503 210.767074,5.59186503 C209.893613,5.59186503 209.189157,5.78364392 208.653688,6.16720744 C208.118218,6.55077096 207.850487,7.01217957 207.850487,7.5514471 C207.850487,7.88564106 207.941629,8.17425878 208.123917,8.41730894 C208.306204,8.66035909 208.556846,8.86922718 208.875849,9.04391948 C209.194853,9.21861178 209.517649,9.35532544 209.844248,9.45406456 C210.170846,9.55280369 210.710106,9.69711255 211.462042,9.88699548 C212.403861,10.1072597 213.256423,10.3503062 214.019752,10.6161423 C214.783082,10.8819784 215.432472,11.2047745 215.967942,11.5845404 C216.503411,11.9643063 216.921148,12.4447029 217.221163,13.0257447 C217.521178,13.6067864 217.671183,14.3188367 217.671183,15.161917 L217.671183,15.161917 Z M231.388257,6.26404725 L227.696952,6.26404725 L227.696952,18.3975059 C227.696952,19.0962751 227.54125,19.6146478 227.229842,19.9526394 C226.918434,20.290631 226.515888,20.4596243 226.022193,20.4596243 C225.520902,20.4596243 225.112659,20.2887322 224.797454,19.9469429 C224.482248,19.6051536 224.324648,19.0886798 224.324648,18.3975059 L224.324648,6.26404725 L220.633342,6.26404725 C220.056098,6.26404725 219.626969,6.1368276 219.345942,5.88238447 C219.064915,5.62794134 218.924404,5.29185359 218.924404,4.87411114 C218.924404,4.44117806 219.070612,4.0993939 219.363031,3.84874843 C219.655451,3.59810296 220.078884,3.47278211 220.633342,3.47278211 L231.388257,3.47278211 C231.973097,3.47278211 232.407922,3.60190057 232.692747,3.86014135 C232.977571,4.11838214 233.119981,4.45636869 233.119981,4.87411114 C233.119981,5.29185359 232.975672,5.62794134 232.68705,5.88238447 C232.398428,6.1368276 231.965501,6.26404725 231.388257,6.26404725 L231.388257,6.26404725 Z M235.26185,18.3975059 L235.26185,5.23868455 C235.26185,4.55510599 235.417551,4.04242977 235.728959,3.70064049 C236.040367,3.35885121 236.442913,3.18795913 236.936609,3.18795913 C237.445495,3.18795913 237.857535,3.35695241 238.172741,3.69494403 C238.487946,4.03293565 238.645547,4.54751067 238.645547,5.23868455 L238.645547,18.3975059 C238.645547,19.0886798 238.487946,19.6051536 238.172741,19.9469429 C237.857535,20.2887322 237.445495,20.4596243 236.936609,20.4596243 C236.450509,20.4596243 236.049862,20.2868334 235.734656,19.9412465 C235.41945,19.5956595 235.26185,19.0810845 235.26185,18.3975059 L235.26185,18.3975059 Z M253.274055,6.26404725 L249.582749,6.26404725 L249.582749,18.3975059 C249.582749,19.0962751 249.427047,19.6146478 249.115639,19.9526394 C248.804231,20.290631 248.401685,20.4596243 247.90799,20.4596243 C247.406699,20.4596243 246.998457,20.2887322 246.683251,19.9469429 C246.368045,19.6051536 246.210445,19.0886798 246.210445,18.3975059 L246.210445,6.26404725 L242.519139,6.26404725 C241.941895,6.26404725 241.512766,6.1368276 241.231739,5.88238447 C240.950713,5.62794134 240.810201,5.29185359 240.810201,4.87411114 C240.810201,4.44117806 240.956409,4.0993939 241.248829,3.84874843 C241.541248,3.59810296 241.964681,3.47278211 242.519139,3.47278211 L253.274055,3.47278211 C253.858894,3.47278211 254.293719,3.60190057 254.578544,3.86014135 C254.863368,4.11838214 255.005778,4.45636869 255.005778,4.87411114 C255.005778,5.29185359 254.861469,5.62794134 254.572847,5.88238447 C254.284225,6.1368276 253.851299,6.26404725 253.274055,6.26404725 L253.274055,6.26404725 Z M257.033718,13.2706924 L257.033718,5.23868455 C257.033718,4.55510599 257.187521,4.04242977 257.495131,3.70064049 C257.802741,3.35885121 258.207186,3.18795913 258.708477,3.18795913 C259.232554,3.18795913 259.648391,3.35885121 259.956002,3.70064049 C260.263612,4.04242977 260.417415,4.55510599 260.417415,5.23868455 L260.417415,13.4529791 C260.417415,14.3872031 260.521849,15.1676103 260.73072,15.794224 C260.939591,16.4208376 261.309858,16.9069307 261.84153,17.2525176 C262.373202,17.5981045 263.117532,17.7708954 264.074542,17.7708954 C265.396127,17.7708954 266.330337,17.4196172 266.8772,16.7170504 C267.424063,16.0144835 267.69749,14.9492563 267.69749,13.5213366 L267.69749,5.23868455 C267.69749,4.54751067 267.849394,4.03293565 268.153207,3.69494403 C268.45702,3.35695241 268.863363,3.18795913 269.372249,3.18795913 C269.881135,3.18795913 270.293175,3.35695241 270.608381,3.69494403 C270.923587,4.03293565 271.081187,4.54751067 271.081187,5.23868455 L271.081187,13.2706924 C271.081187,14.577087 270.953967,15.6669987 270.699524,16.5404602 C270.445081,17.4139216 269.964684,18.1810372 269.25832,18.8418298 C268.650695,19.4038833 267.944341,19.8140242 267.139237,20.072265 C266.334133,20.3305058 265.392328,20.4596243 264.313793,20.4596243 C263.030185,20.4596243 261.925082,20.3210118 260.998454,20.0437827 C260.071825,19.7665537 259.316102,19.3374247 258.731263,18.7563829 C258.146423,18.1753411 257.717294,17.4310112 257.443863,16.5233708 C257.170432,15.6157304 257.033718,14.5315151 257.033718,13.2706924 L257.033718,13.2706924 Z M285.584373,6.26404725 L281.893067,6.26404725 L281.893067,18.3975059 C281.893067,19.0962751 281.737365,19.6146478 281.425957,19.9526394 C281.114549,20.290631 280.712004,20.4596243 280.218308,20.4596243 C279.717017,20.4596243 279.308775,20.2887322 278.993569,19.9469429 C278.678364,19.6051536 278.520763,19.0886798 278.520763,18.3975059 L278.520763,6.26404725 L274.829457,6.26404725 C274.252213,6.26404725 273.823084,6.1368276 273.542057,5.88238447 C273.261031,5.62794134 273.120519,5.29185359 273.120519,4.87411114 C273.120519,4.44117806 273.266727,4.0993939 273.559147,3.84874843 C273.851567,3.59810296 274.274999,3.47278211 274.829457,3.47278211 L285.584373,3.47278211 C286.169212,3.47278211 286.604038,3.60190057 286.888862,3.86014135 C287.173686,4.11838214 287.316097,4.45636869 287.316097,4.87411114 C287.316097,5.29185359 287.171788,5.62794134 286.883166,5.88238447 C286.594544,6.1368276 286.161617,6.26404725 285.584373,6.26404725 L285.584373,6.26404725 Z M182.045525,30.8412032 L186.454585,30.8412032 C187.601478,30.8412032 188.585057,30.947536 189.405351,31.1602049 C190.225645,31.3728738 190.969975,31.771622 191.638363,32.3564614 C193.377691,33.8451436 194.247342,36.1085142 194.247342,39.1466411 C194.247342,40.149223 194.159997,41.064445 193.985304,41.8923345 C193.810612,42.7202241 193.540982,43.4664529 193.176407,44.1310431 C192.811832,44.7956334 192.344727,45.389958 191.775078,45.9140349 C191.326954,46.3165868 190.837064,46.6393829 190.305392,46.8824331 C189.773719,47.1254832 189.20218,47.2963753 188.590757,47.3951144 C187.979334,47.4938535 187.29007,47.5432224 186.522943,47.5432224 L182.113883,47.5432224 C181.498662,47.5432224 181.035355,47.4501811 180.723947,47.2640958 C180.412539,47.0780106 180.209367,46.815976 180.114426,46.4779844 C180.019484,46.1399928 179.972014,45.7013698 179.972014,45.1621023 L179.972014,32.9147144 C179.972014,32.185564 180.135311,31.6576973 180.46191,31.3310987 C180.788508,31.0045 181.316375,30.8412032 182.045525,30.8412032 L182.045525,30.8412032 Z M183.355711,33.5185391 L183.355711,44.8544935 L185.919118,44.8544935 C186.481171,44.8544935 186.921693,44.8393031 187.240696,44.8089218 C187.5597,44.7785405 187.890091,44.7025885 188.23188,44.5810634 C188.57367,44.4595383 188.869883,44.2886463 189.120528,44.0683821 C190.25223,43.1113721 190.818073,41.463213 190.818073,39.1238552 C190.818073,37.4756714 190.56933,36.2414508 190.071837,35.4211566 C189.574343,34.6008623 188.961031,34.0786921 188.23188,33.8546302 C187.50273,33.6305684 186.621686,33.5185391 185.588723,33.5185391 L183.355711,33.5185391 Z M199.112118,34.0084346 L198.941224,34.0084346 C198.515886,34.0084346 198.13043,33.8356438 197.784843,33.4900568 C197.439256,33.1444699 197.266465,32.7362277 197.266465,32.265318 C197.266465,31.7792177 197.439256,31.3728743 197.784843,31.0462757 C198.13043,30.7196771 198.55766,30.5563802 199.066546,30.5563802 C199.415931,30.5563802 199.742525,30.6570166 200.046337,30.8582925 C200.35015,31.0595684 200.585601,31.3519838 200.752698,31.7355473 C200.919795,32.1191108 201.003342,32.5881146 201.003342,33.1425728 C201.003342,33.8945092 200.843843,34.5989643 200.52484,35.2559593 C200.205837,35.9129542 199.816582,36.4332256 199.357066,36.8167892 C198.897549,37.2003527 198.481712,37.3921316 198.109541,37.3921316 C197.874086,37.3921316 197.682307,37.3180783 197.534199,37.1699696 C197.38609,37.021861 197.312037,36.8414749 197.312037,36.628806 C197.312037,36.2870167 197.467738,36.036375 197.779146,35.8768733 C198.181698,35.6414185 198.496899,35.3831816 198.724759,35.1021549 C198.952618,34.8211281 199.081737,34.4565584 199.112118,34.0084346 L199.112118,34.0084346 Z M215.529314,33.4501816 L207.907451,33.4501816 L207.907451,37.5516324 L214.925489,37.5516324 C215.441971,37.5516324 215.827428,37.6674593 216.081871,37.8991165 C216.336314,38.1307736 216.463534,38.4364806 216.463534,38.8162464 C216.463534,39.1960123 216.338213,39.5055168 216.087567,39.7447693 C215.836922,39.9840218 215.449566,40.1036463 214.925489,40.1036463 L207.907451,40.1036463 L207.907451,44.8544935 L215.791351,44.8544935 C216.323024,44.8544935 216.72367,44.9779155 216.993304,45.2247633 C217.262938,45.4716112 217.397753,45.8001037 217.397753,46.2102508 C217.397753,46.6052073 217.262938,46.9261047 216.993304,47.1729525 C216.72367,47.4198003 216.323024,47.5432224 215.791351,47.5432224 L206.597266,47.5432224 C205.86052,47.5432224 205.330754,47.3799255 205.007954,47.0533268 C204.685153,46.7267282 204.523754,46.1988616 204.523754,45.4697111 L204.523754,32.9147144 C204.523754,32.4286141 204.595909,32.0317647 204.74022,31.7241544 C204.884531,31.416544 205.110488,31.1924855 205.418099,31.0519722 C205.725709,30.9114588 206.118761,30.8412032 206.597266,30.8412032 L215.529314,30.8412032 C216.068582,30.8412032 216.469229,30.9608276 216.731267,31.2000801 C216.993306,31.4393326 217.124323,31.7526347 217.124323,32.1399959 C217.124323,32.5349524 216.993306,32.8520522 216.731267,33.0913047 C216.469229,33.3305571 216.068582,33.4501816 215.529314,33.4501816 L215.529314,33.4501816 Z M224.495541,32.5843198 L231.000898,42.4278017 L231.000898,32.4931764 C231.000898,31.8475744 231.139511,31.3633802 231.41674,31.0405792 C231.693969,30.7177783 232.068032,30.5563802 232.538942,30.5563802 C233.025042,30.5563802 233.4086,30.7177783 233.689627,31.0405792 C233.970654,31.3633802 234.111165,31.8475744 234.111165,32.4931764 L234.111165,45.629212 C234.111165,47.0951082 233.503549,47.8280453 232.288298,47.8280453 C231.984485,47.8280453 231.711058,47.7843729 231.468008,47.6970268 C231.224958,47.6096806 230.997102,47.4710681 230.784433,47.2811852 C230.571764,47.0913023 230.374288,46.8691426 230.192001,46.6146995 C230.009713,46.3602563 229.827428,46.1001206 229.645141,45.8342845 L223.299285,36.1047317 L223.299285,45.8912491 C223.299285,46.5292558 223.151178,47.0115512 222.854961,47.3381498 C222.558744,47.6647485 222.178984,47.8280453 221.715669,47.8280453 C221.237164,47.8280453 220.853606,47.6628497 220.564984,47.3324534 C220.276362,47.0020571 220.132053,46.5216604 220.132053,45.8912491 L220.132053,33.0058578 C220.132053,32.4589949 220.192815,32.0298659 220.31434,31.7184579 C220.458651,31.3766686 220.6979,31.0975449 221.032094,30.8810784 C221.366288,30.6646118 221.72706,30.5563802 222.114421,30.5563802 C222.418234,30.5563802 222.67837,30.605749 222.894836,30.7044881 C223.111303,30.8032273 223.301183,30.9361433 223.464482,31.1032403 C223.627782,31.2703373 223.794876,31.4868006 223.965771,31.7526367 C224.136665,32.0184728 224.313254,32.2956977 224.495541,32.5843198 L224.495541,32.5843198 Z M250.505575,42.530338 C250.505575,43.5405152 250.24544,44.448142 249.72516,45.2532456 C249.204881,46.0583493 248.443462,46.6887512 247.44088,47.1444702 C246.438298,47.6001892 245.249649,47.8280453 243.874897,47.8280453 C242.226713,47.8280453 240.867171,47.516642 239.796232,46.893826 C239.0367,46.4457023 238.41959,45.84758 237.944882,45.0994412 C237.470175,44.3513025 237.232825,43.6240618 237.232825,42.9176973 C237.232825,42.5075501 237.375235,42.156272 237.660059,41.8638523 C237.944884,41.5714325 238.307555,41.4252249 238.748083,41.4252249 C239.105063,41.4252249 239.406972,41.5391529 239.65382,41.7670124 C239.900668,41.994872 240.111435,42.3328585 240.286127,42.7809822 C240.498796,43.3126544 240.728551,43.7569738 240.975399,44.1139537 C241.222246,44.4709337 241.569727,44.7652478 242.017851,44.996905 C242.465974,45.2285621 243.054603,45.344389 243.783753,45.344389 C244.786335,45.344389 245.600921,45.1108365 246.227534,44.6437245 C246.854148,44.1766125 247.16745,43.5936806 247.16745,42.8949114 C247.16745,42.3404533 246.998457,41.8904375 246.660465,41.5448505 C246.322474,41.1992636 245.885749,40.9353303 245.35028,40.7530427 C244.81481,40.570755 244.098962,40.3770774 243.202714,40.1720038 C242.002654,39.890977 240.998189,39.5624845 240.189287,39.1865163 C239.380386,38.8105481 238.738591,38.2978719 238.263884,37.6484722 C237.789177,36.9990726 237.551827,36.1920823 237.551827,35.227477 C237.551827,34.3084436 237.802468,33.4919592 238.303759,32.7779994 C238.80505,32.0640396 239.530392,31.5152861 240.479807,31.1317226 C241.429221,30.7481591 242.545716,30.5563802 243.829325,30.5563802 C244.854693,30.5563802 245.741433,30.6835998 246.489571,30.938043 C247.23771,31.1924861 247.858618,31.5304727 248.352314,31.9520128 C248.846009,32.3735529 249.206781,32.8159735 249.434641,33.2792878 C249.662501,33.7426022 249.776429,34.1945168 249.776429,34.6350452 C249.776429,35.037597 249.634018,35.4002679 249.349194,35.7230689 C249.06437,36.0458699 248.709294,36.207268 248.283956,36.207268 C247.896595,36.207268 247.602281,36.1104291 247.401005,35.9167486 C247.199729,35.723068 246.981367,35.4059682 246.745912,34.9654398 C246.442099,34.3350285 246.07753,33.8432391 245.652192,33.4900568 C245.226854,33.1368746 244.543286,32.9602861 243.601466,32.9602861 C242.728005,32.9602861 242.02355,33.152065 241.48808,33.5356285 C240.95261,33.919192 240.684879,34.3806006 240.684879,34.9198681 C240.684879,35.2540621 240.776022,35.5426798 240.958309,35.78573 C241.140597,36.0287801 241.391239,36.2376482 241.710242,36.4123405 C242.029245,36.5870328 242.352041,36.7237465 242.67864,36.8224856 C243.005239,36.9212247 243.544498,37.0655336 244.296435,37.2554165 C245.238254,37.4756807 246.090815,37.7187272 246.854145,37.9845633 C247.617474,38.2503995 248.266864,38.5731956 248.802334,38.9529615 C249.337804,39.3327273 249.75554,39.8131239 250.055555,40.3941657 C250.35557,40.9752075 250.505575,41.6872578 250.505575,42.530338 L250.505575,42.530338 Z M264.382151,33.4501816 L256.760288,33.4501816 L256.760288,37.5516324 L263.778326,37.5516324 C264.294808,37.5516324 264.680264,37.6674593 264.934707,37.8991165 C265.18915,38.1307736 265.31637,38.4364806 265.31637,38.8162464 C265.31637,39.1960123 265.191049,39.5055168 264.940404,39.7447693 C264.689758,39.9840218 264.302403,40.1036463 263.778326,40.1036463 L256.760288,40.1036463 L256.760288,44.8544935 L264.644188,44.8544935 C265.17586,44.8544935 265.576507,44.9779155 265.846141,45.2247633 C266.115775,45.4716112 266.250589,45.8001037 266.250589,46.2102508 C266.250589,46.6052073 266.115775,46.9261047 265.846141,47.1729525 C265.576507,47.4198003 265.17586,47.5432224 264.644188,47.5432224 L255.450102,47.5432224 C254.713356,47.5432224 254.183591,47.3799255 253.86079,47.0533268 C253.537989,46.7267282 253.376591,46.1988616 253.376591,45.4697111 L253.376591,32.9147144 C253.376591,32.4286141 253.448745,32.0317647 253.593056,31.7241544 C253.737367,31.416544 253.963325,31.1924855 254.270935,31.0519722 C254.578545,30.9114588 254.971597,30.8412032 255.450102,30.8412032 L264.382151,30.8412032 C264.921418,30.8412032 265.322065,30.9608276 265.584104,31.2000801 C265.846142,31.4393326 265.977159,31.7526347 265.977159,32.1399959 C265.977159,32.5349524 265.846142,32.8520522 265.584104,33.0913047 C265.322065,33.3305571 264.921418,33.4501816 264.382151,33.4501816 L264.382151,33.4501816 Z M269.076033,45.765927 L269.076033,32.6071056 C269.076033,31.923527 269.231735,31.4108508 269.543143,31.0690615 C269.854551,30.7272723 270.257097,30.5563802 270.750792,30.5563802 C271.259679,30.5563802 271.671718,30.7253735 271.986924,31.0633651 C272.30213,31.4013567 272.45973,31.9159317 272.45973,32.6071056 L272.45973,45.765927 C272.45973,46.4571009 272.30213,46.9735747 271.986924,47.315364 C271.671718,47.6571533 271.259679,47.8280453 270.750792,47.8280453 C270.264692,47.8280453 269.864045,47.6552545 269.548839,47.3096675 C269.233634,46.9640806 269.076033,46.4495056 269.076033,45.765927 L269.076033,45.765927 Z M291.497298,40.7530427 L291.497298,43.9544529 C291.497298,44.3797906 291.455524,44.719676 291.371976,44.9741191 C291.288427,45.2285623 291.134624,45.4583172 290.910562,45.6633907 C290.686501,45.8684643 290.399782,46.0659396 290.050397,46.2558225 C289.04022,46.8026854 288.068034,47.2014335 287.13381,47.452079 C286.199586,47.7027245 285.181829,47.8280453 284.080508,47.8280453 C282.796899,47.8280453 281.627238,47.63057 280.571488,47.2356135 C279.515739,46.840657 278.615708,46.2672192 277.871367,45.5152828 C277.127026,44.7633464 276.555487,43.851922 276.156732,42.7809822 C275.757978,41.7100425 275.558604,40.513798 275.558604,39.1922128 C275.558604,37.8934135 275.752282,36.7047642 276.139643,35.6262291 C276.527004,34.5476941 277.096644,33.6324721 277.848581,32.8805357 C278.600517,32.1285992 279.515739,31.5532626 280.594274,31.1545084 C281.672809,30.7557543 282.895637,30.5563802 284.262794,30.5563802 C285.386901,30.5563802 286.381873,30.7063855 287.247739,31.0064005 C288.113605,31.3064155 288.816161,31.6842769 289.355429,32.1399959 C289.894697,32.595715 290.30104,33.0780104 290.574471,33.5868966 C290.847903,34.0957829 290.984616,34.5476975 290.984616,34.942654 C290.984616,35.3679918 290.827016,35.7306627 290.51181,36.0306777 C290.196605,36.3306928 289.818743,36.480698 289.378215,36.480698 C289.135165,36.480698 288.901612,36.423734 288.67755,36.3098043 C288.453488,36.1958745 288.265507,36.0363752 288.113601,35.8313017 C287.695858,35.1781044 287.342681,34.6844162 287.054059,34.3502222 C286.765437,34.0160282 286.376183,33.7350057 285.886285,33.5071462 C285.396387,33.2792867 284.771682,33.1653586 284.01215,33.1653586 C283.229832,33.1653586 282.531074,33.3001735 281.915853,33.5698073 C281.300632,33.839441 280.774664,34.230594 280.337934,34.7432779 C279.901203,35.2559618 279.567014,35.8844649 279.335357,36.628806 C279.1037,37.3731471 278.987873,38.1972266 278.987873,39.1010694 C278.987873,41.0606613 279.437889,42.5683091 280.337934,43.6240582 C281.237979,44.6798073 282.493086,45.207674 284.103293,45.207674 C284.885611,45.207674 285.620447,45.1051387 286.307823,44.9000652 C286.995199,44.6949916 287.692059,44.4025763 288.398424,44.0228104 L288.398424,41.3112957 L285.778052,41.3112957 C285.147641,41.3112957 284.671042,41.2163556 284.348241,41.0264727 C284.02544,40.8365898 283.864042,40.5137936 283.864042,40.0580746 C283.864042,39.6859041 283.998857,39.3782983 284.268491,39.1352482 C284.538124,38.892198 284.904593,38.7706748 285.367907,38.7706748 L289.207321,38.7706748 C289.678231,38.7706748 290.076979,38.8124484 290.403578,38.8959969 C290.730176,38.9795454 290.99411,39.1656278 291.195385,39.4542499 C291.396661,39.7428719 291.497298,40.1757985 291.497298,40.7530427 L291.497298,40.7530427 Z M299.130553,32.5843198 L305.63591,42.4278017 L305.63591,32.4931764 C305.63591,31.8475744 305.774523,31.3633802 306.051752,31.0405792 C306.328981,30.7177783 306.703045,30.5563802 307.173954,30.5563802 C307.660055,30.5563802 308.043612,30.7177783 308.324639,31.0405792 C308.605666,31.3633802 308.746177,31.8475744 308.746177,32.4931764 L308.746177,45.629212 C308.746177,47.0951082 308.138561,47.8280453 306.92331,47.8280453 C306.619497,47.8280453 306.34607,47.7843729 306.10302,47.6970268 C305.85997,47.6096806 305.632114,47.4710681 305.419445,47.2811852 C305.206776,47.0913023 305.009301,46.8691426 304.827013,46.6146995 C304.644725,46.3602563 304.46244,46.1001206 304.280153,45.8342845 L297.934297,36.1047317 L297.934297,45.8912491 C297.934297,46.5292558 297.786191,47.0115512 297.489973,47.3381498 C297.193756,47.6647485 296.813996,47.8280453 296.350681,47.8280453 C295.872176,47.8280453 295.488618,47.6628497 295.199996,47.3324534 C294.911374,47.0020571 294.767066,46.5216604 294.767066,45.8912491 L294.767066,33.0058578 C294.767066,32.4589949 294.827827,32.0298659 294.949352,31.7184579 C295.093663,31.3766686 295.332912,31.0975449 295.667106,30.8810784 C296.0013,30.6646118 296.362072,30.5563802 296.749433,30.5563802 C297.053246,30.5563802 297.313382,30.605749 297.529848,30.7044881 C297.746315,30.8032273 297.936195,30.9361433 298.099494,31.1032403 C298.262794,31.2703373 298.429888,31.4868006 298.600783,31.7526367 C298.771677,32.0184728 298.948266,32.2956977 299.130553,32.5843198 L299.130553,32.5843198 Z M323.454435,33.4501816 L315.832573,33.4501816 L315.832573,37.5516324 L322.850611,37.5516324 C323.367092,37.5516324 323.752549,37.6674593 324.006992,37.8991165 C324.261435,38.1307736 324.388655,38.4364806 324.388655,38.8162464 C324.388655,39.1960123 324.263334,39.5055168 324.012688,39.7447693 C323.762043,39.9840218 323.374688,40.1036463 322.850611,40.1036463 L315.832573,40.1036463 L315.832573,44.8544935 L323.716473,44.8544935 C324.248145,44.8544935 324.648792,44.9779155 324.918426,45.2247633 C325.188059,45.4716112 325.322874,45.8001037 325.322874,46.2102508 C325.322874,46.6052073 325.188059,46.9261047 324.918426,47.1729525 C324.648792,47.4198003 324.248145,47.5432224 323.716473,47.5432224 L314.522387,47.5432224 C313.785641,47.5432224 313.255876,47.3799255 312.933075,47.0533268 C312.610274,46.7267282 312.448876,46.1988616 312.448876,45.4697111 L312.448876,32.9147144 C312.448876,32.4286141 312.52103,32.0317647 312.665341,31.7241544 C312.809652,31.416544 313.03561,31.1924855 313.34322,31.0519722 C313.65083,30.9114588 314.043882,30.8412032 314.522387,30.8412032 L323.454435,30.8412032 C323.993703,30.8412032 324.39435,30.9608276 324.656388,31.2000801 C324.918427,31.4393326 325.049444,31.7526347 325.049444,32.1399959 C325.049444,32.5349524 324.918427,32.8520522 324.656388,33.0913047 C324.39435,33.3305571 323.993703,33.4501816 323.454435,33.4501816 L323.454435,33.4501816 Z M333.651098,45.0253873 L330.973762,34.384401 L330.973762,45.9140349 C330.973762,46.5520416 330.831352,47.0305394 330.546528,47.3495427 C330.261703,47.6685461 329.883842,47.8280453 329.412932,47.8280453 C328.957213,47.8280453 328.585048,47.6704449 328.296426,47.3552392 C328.007804,47.0400335 327.863495,46.5596369 327.863495,45.9140349 L327.863495,32.698249 C327.863495,31.9690985 328.053375,31.4773091 328.433141,31.2228659 C328.812907,30.9684228 329.325583,30.8412032 329.971185,30.8412032 L331.019334,30.8412032 C331.649745,30.8412032 332.107356,30.8981672 332.39218,31.0120969 C332.677005,31.1260267 332.887772,31.3310972 333.024487,31.6273146 C333.161203,31.9235319 333.316905,32.4058274 333.491597,33.0742153 L335.918289,42.2227292 L338.344981,33.0742153 C338.519673,32.4058274 338.675374,31.9235319 338.81209,31.6273146 C338.948806,31.3310972 339.159573,31.1260267 339.444397,31.0120969 C339.729222,30.8981672 340.186833,30.8412032 340.817244,30.8412032 L341.865392,30.8412032 C342.510994,30.8412032 343.023671,30.9684228 343.403437,31.2228659 C343.783202,31.4773091 343.973082,31.9690985 343.973082,32.698249 L343.973082,45.9140349 C343.973082,46.5520416 343.830672,47.0305394 343.545848,47.3495427 C343.261024,47.6685461 342.879365,47.8280453 342.40086,47.8280453 C341.952736,47.8280453 341.584369,47.6685461 341.295747,47.3495427 C341.007124,47.0305394 340.862816,46.5520416 340.862816,45.9140349 L340.862816,34.384401 L338.18548,45.0253873 C338.010787,45.7165611 337.868377,46.223541 337.758245,46.5463419 C337.648113,46.8691429 337.444941,47.1634571 337.148724,47.4292932 C336.852507,47.6951293 336.442366,47.8280453 335.918289,47.8280453 C335.523332,47.8280453 335.189143,47.7425993 334.915712,47.5717047 C334.64228,47.40081 334.429615,47.1824479 334.277708,46.9166118 C334.125802,46.6507757 334.006178,46.3564616 333.918832,46.0336606 C333.831485,45.7108596 333.742242,45.3747719 333.651098,45.0253873 L333.651098,45.0253873 Z M358.453482,33.4501816 L350.83162,33.4501816 L350.83162,37.5516324 L357.849658,37.5516324 C358.366139,37.5516324 358.751596,37.6674593 359.006039,37.8991165 C359.260482,38.1307736 359.387702,38.4364806 359.387702,38.8162464 C359.387702,39.1960123 359.262381,39.5055168 359.011736,39.7447693 C358.76109,39.9840218 358.373735,40.1036463 357.849658,40.1036463 L350.83162,40.1036463 L350.83162,44.8544935 L358.71552,44.8544935 C359.247192,44.8544935 359.647839,44.9779155 359.917473,45.2247633 C360.187106,45.4716112 360.321921,45.8001037 360.321921,46.2102508 C360.321921,46.6052073 360.187106,46.9261047 359.917473,47.1729525 C359.647839,47.4198003 359.247192,47.5432224 358.71552,47.5432224 L349.521434,47.5432224 C348.784688,47.5432224 348.254923,47.3799255 347.932122,47.0533268 C347.609321,46.7267282 347.447923,46.1988616 347.447923,45.4697111 L347.447923,32.9147144 C347.447923,32.4286141 347.520077,32.0317647 347.664388,31.7241544 C347.808699,31.416544 348.034657,31.1924855 348.342267,31.0519722 C348.649877,30.9114588 349.042929,30.8412032 349.521434,30.8412032 L358.453482,30.8412032 C358.99275,30.8412032 359.393397,30.9608276 359.655435,31.2000801 C359.917474,31.4393326 360.048491,31.7526347 360.048491,32.1399959 C360.048491,32.5349524 359.917474,32.8520522 359.655435,33.0913047 C359.393397,33.3305571 358.99275,33.4501816 358.453482,33.4501816 L358.453482,33.4501816 Z M367.41971,32.5843198 L373.925066,42.4278017 L373.925066,32.4931764 C373.925066,31.8475744 374.063679,31.3633802 374.340908,31.0405792 C374.618137,30.7177783 374.992201,30.5563802 375.46311,30.5563802 C375.949211,30.5563802 376.332769,30.7177783 376.613795,31.0405792 C376.894822,31.3633802 377.035333,31.8475744 377.035333,32.4931764 L377.035333,45.629212 C377.035333,47.0951082 376.427717,47.8280453 375.212466,47.8280453 C374.908654,47.8280453 374.635226,47.7843729 374.392176,47.6970268 C374.149126,47.6096806 373.92127,47.4710681 373.708601,47.2811852 C373.495932,47.0913023 373.298457,46.8691426 373.116169,46.6146995 C372.933882,46.3602563 372.751597,46.1001206 372.569309,45.8342845 L366.223453,36.1047317 L366.223453,45.8912491 C366.223453,46.5292558 366.075347,47.0115512 365.779129,47.3381498 C365.482912,47.6647485 365.103152,47.8280453 364.639837,47.8280453 C364.161332,47.8280453 363.777775,47.6628497 363.489153,47.3324534 C363.200531,47.0020571 363.056222,46.5216604 363.056222,45.8912491 L363.056222,33.0058578 C363.056222,32.4589949 363.116983,32.0298659 363.238508,31.7184579 C363.382819,31.3766686 363.622068,31.0975449 363.956262,30.8810784 C364.290456,30.6646118 364.651228,30.5563802 365.03859,30.5563802 C365.342402,30.5563802 365.602538,30.605749 365.819005,30.7044881 C366.035471,30.8032273 366.225351,30.9361433 366.388651,31.1032403 C366.55195,31.2703373 366.719044,31.4868006 366.889939,31.7526367 C367.060834,32.0184728 367.237422,32.2956977 367.41971,32.5843198 L367.41971,32.5843198 Z M391.584091,33.6324683 L387.892785,33.6324683 L387.892785,45.765927 C387.892785,46.4646962 387.737083,46.9830688 387.425675,47.3210604 C387.114267,47.6590521 386.711722,47.8280453 386.218026,47.8280453 C385.716735,47.8280453 385.308493,47.6571533 384.993287,47.315364 C384.678082,46.9735747 384.520481,46.4571009 384.520481,45.765927 L384.520481,33.6324683 L380.829175,33.6324683 C380.251931,33.6324683 379.822802,33.5052486 379.541775,33.2508055 C379.260749,32.9963624 379.120237,32.6602746 379.120237,32.2425322 C379.120237,31.8095991 379.266445,31.467815 379.558865,31.2171695 C379.851285,30.966524 380.274717,30.8412032 380.829175,30.8412032 L391.584091,30.8412032 C392.16893,30.8412032 392.603756,30.9703216 392.88858,31.2285624 C393.173404,31.4868032 393.315814,31.8247897 393.315814,32.2425322 C393.315814,32.6602746 393.171506,32.9963624 392.882884,33.2508055 C392.594262,33.5052486 392.161335,33.6324683 391.584091,33.6324683 L391.584091,33.6324683 Z M190.635786,73.0204189 L189.838282,70.9241218 L183.048102,70.9241218 L182.250598,73.0659905 C181.93919,73.9014754 181.673358,74.4654193 181.453094,74.757839 C181.232829,75.0502587 180.872057,75.1964664 180.370766,75.1964664 C179.945428,75.1964664 179.569466,75.0407647 179.242867,74.7293567 C178.916269,74.4179487 178.752972,74.0647717 178.752972,73.6698152 C178.752972,73.4419557 178.790948,73.2065044 178.866901,72.9634543 C178.942854,72.7204041 179.068175,72.3824176 179.242867,71.9494845 L183.515212,61.1034256 C183.636737,60.7920176 183.782945,60.4179539 183.953839,59.9812231 C184.124734,59.5444924 184.307019,59.1818214 184.500699,58.8931994 C184.69438,58.6045773 184.948819,58.3710248 185.264025,58.1925348 C185.579231,58.0140449 185.968485,57.9248012 186.431799,57.9248012 C186.902709,57.9248012 187.295761,58.0140449 187.610966,58.1925348 C187.926172,58.3710248 188.180611,58.6007797 188.374292,58.8818064 C188.567972,59.1628332 188.731269,59.4647425 188.864187,59.7875435 C188.997105,60.1103445 189.166099,60.5413723 189.371172,61.0806398 L193.73466,71.8583411 C194.076449,72.6786354 194.247342,73.2748589 194.247342,73.6470294 C194.247342,74.0343906 194.085943,74.3894663 193.763142,74.7122673 C193.440342,75.0350683 193.051087,75.1964664 192.595368,75.1964664 C192.329532,75.1964664 192.101676,75.1489964 191.911793,75.0540549 C191.72191,74.9591134 191.562411,74.829995 191.433291,74.6666956 C191.30417,74.5033963 191.165558,74.2527546 191.017449,73.914763 C190.86934,73.5767714 190.742121,73.2786596 190.635786,73.0204189 L190.635786,73.0204189 Z M183.93675,68.3835008 L188.926848,68.3835008 L186.409013,61.4907849 L183.93675,68.3835008 Z M186.853337,55.144929 L187.366019,56.1019342 C187.571092,56.4285328 187.673627,56.6525913 187.673627,56.7741164 C187.673627,56.9639994 187.51033,57.0589394 187.183732,57.0589394 C186.682441,57.0589394 186.215336,56.948809 185.782403,56.7285447 C185.569734,56.6222103 185.045665,56.1702957 184.21018,55.3727874 C183.374695,54.5752791 182.956959,54.1271621 182.956959,54.028423 C182.956959,53.9144932 183.150637,53.8575292 183.537998,53.8575292 L185.076042,53.8575292 C185.524166,53.8575292 185.862152,53.9372788 186.090012,54.0967805 C186.317871,54.2562821 186.57231,54.6056615 186.853337,55.144929 L186.853337,55.144929 Z M204.660469,58.2096242 L209.069529,58.2096242 C210.216422,58.2096242 211.200001,58.3159571 212.020295,58.5286259 C212.840589,58.7412948 213.584919,59.140043 214.253307,59.7248824 C215.992635,61.2135646 216.862286,63.4769352 216.862286,66.5150621 C216.862286,67.517644 216.774941,68.432866 216.600249,69.2607556 C216.425556,70.0886452 216.155927,70.8348739 215.791351,71.4994642 C215.426776,72.1640544 214.959671,72.7583791 214.390022,73.282456 C213.941899,73.6850078 213.452008,74.007804 212.920336,74.2508541 C212.388664,74.4939043 211.817124,74.6647963 211.205701,74.7635355 C210.594278,74.8622746 209.905014,74.9116434 209.137887,74.9116434 L204.728827,74.9116434 C204.113606,74.9116434 203.650299,74.8186022 203.338891,74.6325169 C203.027483,74.4464316 202.824311,74.1843971 202.72937,73.8464055 C202.634428,73.5084139 202.586958,73.0697909 202.586958,72.5305233 L202.586958,60.2831355 C202.586958,59.553985 202.750255,59.0261184 203.076854,58.6995197 C203.403452,58.3729211 203.931319,58.2096242 204.660469,58.2096242 L204.660469,58.2096242 Z M205.970655,60.8869602 L205.970655,72.2229145 L208.534062,72.2229145 C209.096115,72.2229145 209.536637,72.2077241 209.855641,72.1773429 C210.174644,72.1469616 210.505035,72.0710096 210.846824,71.9494845 C211.188614,71.8279594 211.484827,71.6570673 211.735472,71.4368031 C212.867174,70.4797931 213.433017,68.831634 213.433017,66.4922763 C213.433017,64.8440924 213.184274,63.6098719 212.686781,62.7895776 C212.189288,61.9692834 211.575975,61.4471131 210.846824,61.2230513 C210.117674,60.9989894 209.23663,60.8869602 208.203667,60.8869602 L205.970655,60.8869602 Z M219.972553,73.134348 L219.972553,59.9755267 C219.972553,59.2919481 220.128254,58.7792719 220.439662,58.4374826 C220.75107,58.0956933 221.153616,57.9248012 221.647312,57.9248012 C222.156198,57.9248012 222.568238,58.0937945 222.883443,58.4317861 C223.198649,58.7697778 223.356249,59.2843528 223.356249,59.9755267 L223.356249,73.134348 C223.356249,73.8255219 223.198649,74.3419957 222.883443,74.683785 C222.568238,75.0255743 222.156198,75.1964664 221.647312,75.1964664 C221.161211,75.1964664 220.760564,75.0236755 220.445359,74.6780886 C220.130153,74.3325016 219.972553,73.8179266 219.972553,73.134348 L219.972553,73.134348 Z M239.83041,69.8987591 C239.83041,70.9089363 239.570275,71.8165631 239.049995,72.6216667 C238.529716,73.4267703 237.768297,74.0571722 236.765715,74.5128912 C235.763133,74.9686103 234.574484,75.1964664 233.199731,75.1964664 C231.551548,75.1964664 230.192006,74.885063 229.121066,74.262247 C228.361535,73.8141233 227.744424,73.216001 227.269717,72.4678623 C226.79501,71.7197235 226.55766,70.9924828 226.55766,70.2861183 C226.55766,69.8759712 226.70007,69.524693 226.984894,69.2322733 C227.269719,68.9398536 227.63239,68.7936459 228.072918,68.7936459 C228.429898,68.7936459 228.731807,68.907574 228.978655,69.1354335 C229.225503,69.363293 229.43627,69.7012796 229.610962,70.1494033 C229.823631,70.6810755 230.053386,71.1253949 230.300234,71.4823748 C230.547081,71.8393547 230.894562,72.1336688 231.342686,72.365326 C231.790809,72.5969832 232.379438,72.71281 233.108588,72.71281 C234.11117,72.71281 234.925756,72.4792575 235.552369,72.0121455 C236.178983,71.5450335 236.492285,70.9621017 236.492285,70.2633325 C236.492285,69.7088743 236.323292,69.2588585 235.9853,68.9132716 C235.647309,68.5676846 235.210584,68.3037513 234.675114,68.1214637 C234.139645,67.9391761 233.423797,67.7454984 232.527549,67.5404248 C231.327489,67.2593981 230.323023,66.9309056 229.514122,66.5549374 C228.705221,66.1789691 228.063426,65.6662929 227.588719,65.0168933 C227.114012,64.3674937 226.876661,63.5605033 226.876661,62.595898 C226.876661,61.6768646 227.127303,60.8603803 227.628594,60.1464204 C228.129885,59.4324606 228.855227,58.8837072 229.804642,58.5001436 C230.754056,58.1165801 231.870551,57.9248012 233.15416,57.9248012 C234.179528,57.9248012 235.066268,58.0520209 235.814406,58.306464 C236.562545,58.5609072 237.183453,58.8988937 237.677149,59.3204338 C238.170844,59.7419739 238.531616,60.1843945 238.759476,60.6477089 C238.987335,61.1110232 239.101263,61.5629378 239.101263,62.0034662 C239.101263,62.406018 238.958853,62.768689 238.674029,63.09149 C238.389205,63.414291 238.034129,63.575689 237.608791,63.575689 C237.22143,63.575689 236.927116,63.4788502 236.72584,63.2851696 C236.524564,63.091489 236.306202,62.7743893 236.070747,62.3338609 C235.766934,61.7034495 235.402365,61.2116601 234.977027,60.8584779 C234.551689,60.5052956 233.868121,60.3287071 232.926301,60.3287071 C232.05284,60.3287071 231.348385,60.520486 230.812915,60.9040495 C230.277445,61.2876131 230.009714,61.7490217 230.009714,62.2882892 C230.009714,62.6224832 230.100857,62.9111009 230.283144,63.154151 C230.465432,63.3972012 230.716074,63.6060693 231.035077,63.7807616 C231.35408,63.9554539 231.676876,64.0921675 232.003475,64.1909067 C232.330074,64.2896458 232.869333,64.4339547 233.621269,64.6238376 C234.563089,64.8441018 235.41565,65.0871483 236.17898,65.3529844 C236.942309,65.6188205 237.591699,65.9416166 238.127169,66.3213825 C238.662639,66.7011484 239.080375,67.181545 239.38039,67.7625868 C239.680405,68.3436285 239.83041,69.0556788 239.83041,69.8987591 L239.83041,69.8987591 Z M253.547485,61.0008894 L249.856179,61.0008894 L249.856179,73.134348 C249.856179,73.8331172 249.700477,74.3514899 249.389069,74.6894815 C249.077661,75.0274731 248.675116,75.1964664 248.18142,75.1964664 C247.680129,75.1964664 247.271887,75.0255743 246.956681,74.683785 C246.641475,74.3419957 246.483875,73.8255219 246.483875,73.134348 L246.483875,61.0008894 L242.792569,61.0008894 C242.215325,61.0008894 241.786196,60.8736697 241.505169,60.6192266 C241.224143,60.3647834 241.083631,60.0286957 241.083631,59.6109532 C241.083631,59.1780202 241.229839,58.836236 241.522259,58.5855905 C241.814678,58.3349451 242.238111,58.2096242 242.792569,58.2096242 L253.547485,58.2096242 C254.132324,58.2096242 254.56715,58.3387427 254.851974,58.5969835 C255.136798,58.8552242 255.279208,59.1932108 255.279208,59.6109532 C255.279208,60.0286957 255.1349,60.3647834 254.846277,60.6192266 C254.557655,60.8736697 254.124729,61.0008894 253.547485,61.0008894 L253.547485,61.0008894 Z M266.501234,73.0204189 L265.703729,70.9241218 L258.91355,70.9241218 L258.116045,73.0659905 C257.804637,73.9014754 257.538805,74.4654193 257.318541,74.757839 C257.098277,75.0502587 256.737505,75.1964664 256.236214,75.1964664 C255.810876,75.1964664 255.434913,75.0407647 255.108315,74.7293567 C254.781716,74.4179487 254.618419,74.0647717 254.618419,73.6698152 C254.618419,73.4419557 254.656395,73.2065044 254.732348,72.9634543 C254.808301,72.7204041 254.933622,72.3824176 255.108315,71.9494845 L259.380659,61.1034256 C259.502184,60.7920176 259.648392,60.4179539 259.819287,59.9812231 C259.990181,59.5444924 260.172466,59.1818214 260.366147,58.8931994 C260.559827,58.6045773 260.814267,58.3710248 261.129472,58.1925348 C261.444678,58.0140449 261.833932,57.9248012 262.297246,57.9248012 C262.768156,57.9248012 263.161208,58.0140449 263.476414,58.1925348 C263.791619,58.3710248 264.046059,58.6007797 264.239739,58.8818064 C264.43342,59.1628332 264.596717,59.4647425 264.729635,59.7875435 C264.862553,60.1103445 265.031546,60.5413723 265.23662,61.0806398 L269.600108,71.8583411 C269.941897,72.6786354 270.112789,73.2748589 270.112789,73.6470294 C270.112789,74.0343906 269.951391,74.3894663 269.62859,74.7122673 C269.305789,75.0350683 268.916535,75.1964664 268.460816,75.1964664 C268.19498,75.1964664 267.967123,75.1489964 267.777241,75.0540549 C267.587358,74.9591134 267.427858,74.829995 267.298738,74.6666956 C267.169618,74.5033963 267.031005,74.2527546 266.882896,73.914763 C266.734788,73.5767714 266.607568,73.2786596 266.501234,73.0204189 L266.501234,73.0204189 Z M259.802197,68.3835008 L264.792296,68.3835008 L262.274461,61.4907849 L259.802197,68.3835008 Z M277.005505,59.9527408 L283.510862,69.7962228 L283.510862,59.8615975 C283.510862,59.2159955 283.649474,58.7318013 283.926703,58.4090003 C284.203932,58.0861993 284.577996,57.9248012 285.048906,57.9248012 C285.535006,57.9248012 285.918564,58.0861993 286.19959,58.4090003 C286.480617,58.7318013 286.621128,59.2159955 286.621128,59.8615975 L286.621128,72.997633 C286.621128,74.4635293 286.013512,75.1964664 284.798261,75.1964664 C284.494449,75.1964664 284.221021,75.152794 283.977971,75.0654478 C283.734921,74.9781017 283.507065,74.8394892 283.294396,74.6496063 C283.081727,74.4597233 282.884252,74.2375636 282.701964,73.9831205 C282.519677,73.7286774 282.337392,73.4685417 282.155104,73.2027056 L275.809248,63.4731528 L275.809248,73.2596702 C275.809248,73.8976768 275.661142,74.3799722 275.364925,74.7065709 C275.068707,75.0331695 274.688947,75.1964664 274.225633,75.1964664 C273.747128,75.1964664 273.36357,75.0312707 273.074948,74.7008744 C272.786326,74.3704781 272.642017,73.8900815 272.642017,73.2596702 L272.642017,60.3742788 C272.642017,59.827416 272.702779,59.398287 272.824304,59.086879 C272.968615,58.7450897 273.207864,58.465966 273.542057,58.2494994 C273.876251,58.0330329 274.237024,57.9248012 274.624385,57.9248012 C274.928197,57.9248012 275.188333,57.9741701 275.4048,58.0729092 C275.621266,58.1716483 275.811146,58.3045644 275.974446,58.4716613 C276.137745,58.6387583 276.304839,58.8552216 276.475734,59.1210577 C276.646629,59.3868938 276.823217,59.6641188 277.005505,59.9527408 L277.005505,59.9527408 Z M304.553583,69.6367219 C304.553583,70.1683941 304.422566,70.7437308 304.160527,71.3627492 C303.898489,71.9817675 303.486449,72.5893838 302.924395,73.1856162 C302.362342,73.7818486 301.644595,74.2660428 300.771134,74.6382134 C299.897672,75.0103839 298.879915,75.1964664 297.717832,75.1964664 C296.836775,75.1964664 296.035481,75.1129191 295.313926,74.9458222 C294.59237,74.7787252 293.937284,74.5185895 293.348647,74.1654072 C292.76001,73.812225 292.218852,73.3470188 291.725156,72.7697746 C291.284628,72.2456977 290.908665,71.6589683 290.597257,71.0095687 C290.285849,70.360169 290.052297,69.6671067 289.896593,68.930361 C289.740889,68.1936152 289.663038,67.4113092 289.663038,66.5834196 C289.663038,65.2390485 289.858614,64.0352088 290.249773,62.9718643 C290.640932,61.9085199 291.201078,60.9989943 291.930229,60.2432602 C292.659379,59.4875262 293.51384,58.9121895 294.493635,58.517233 C295.473431,58.1222765 296.517772,57.9248012 297.626688,57.9248012 C298.978655,57.9248012 300.182494,58.194431 301.238243,58.7336985 C302.293993,59.272966 303.102882,59.9394451 303.664935,60.7331558 C304.226989,61.5268664 304.508011,62.2768927 304.508011,62.9832573 C304.508011,63.3706184 304.371298,63.7124026 304.097866,64.00862 C303.824435,64.3048373 303.494043,64.4529438 303.106682,64.4529438 C302.673749,64.4529438 302.349054,64.3504086 302.132588,64.145335 C301.916121,63.9402614 301.674973,63.5870845 301.409137,63.0857935 C300.968609,62.2579039 300.450236,61.6388949 299.854004,61.2287477 C299.257771,60.8186006 298.522935,60.6135301 297.649474,60.6135301 C296.259531,60.6135301 295.15253,61.1413967 294.328438,62.1971458 C293.504346,63.252895 293.092306,64.7529476 293.092306,66.6973488 C293.092306,67.9961481 293.274591,69.0765658 293.639167,69.9386343 C294.003742,70.8007028 294.520216,71.4443963 295.188604,71.869734 C295.856991,72.2950718 296.639297,72.5077375 297.535545,72.5077375 C298.507745,72.5077375 299.329926,72.2665898 300.002112,71.7842872 C300.674297,71.3019845 301.181277,70.5937318 301.523066,69.6595078 C301.667377,69.2189794 301.845865,68.860106 302.058534,68.5828769 C302.271203,68.3056478 302.612987,68.1670354 303.083896,68.1670354 C303.486448,68.1670354 303.83203,68.3075466 304.120652,68.5885734 C304.409274,68.8696001 304.553583,69.2189795 304.553583,69.6367219 L304.553583,69.6367219 Z M318.601052,60.8186027 L310.979189,60.8186027 L310.979189,64.9200535 L317.997227,64.9200535 C318.513709,64.9200535 318.899165,65.0358803 319.153609,65.2675375 C319.408052,65.4991947 319.535271,65.8049016 319.535271,66.1846675 C319.535271,66.5644333 319.40995,66.8739379 319.159305,67.1131904 C318.90866,67.3524429 318.521304,67.4720673 317.997227,67.4720673 L310.979189,67.4720673 L310.979189,72.2229145 L318.863089,72.2229145 C319.394761,72.2229145 319.795408,72.3463366 320.065042,72.5931844 C320.334676,72.8400322 320.469491,73.1685248 320.469491,73.5786719 C320.469491,73.9736284 320.334676,74.2945257 320.065042,74.5413735 C319.795408,74.7882214 319.394761,74.9116434 318.863089,74.9116434 L309.669004,74.9116434 C308.932258,74.9116434 308.402492,74.7483465 308.079691,74.4217479 C307.75689,74.0951492 307.595492,73.5672826 307.595492,72.8381322 L307.595492,60.2831355 C307.595492,59.7970352 307.667647,59.4001858 307.811958,59.0925754 C307.956269,58.7849651 308.182226,58.5609066 308.489836,58.4203932 C308.797447,58.2798798 309.190499,58.2096242 309.669004,58.2096242 L318.601052,58.2096242 C319.14032,58.2096242 319.540966,58.3292487 319.803005,58.5685012 C320.065043,58.8077537 320.196061,59.1210558 320.196061,59.508417 C320.196061,59.9033735 320.065043,60.2204732 319.803005,60.4597257 C319.540966,60.6989782 319.14032,60.8186027 318.601052,60.8186027 L318.601052,60.8186027 Z" id="INSTITUT--Copy" sketch:type="MSShapeGroup"></path>
        </g>
    </g>
</svg>