<?xml version="1.0" encoding="UTF-8" standalone="no"?>
<svg width="143px" height="79px" viewBox="0 0 143 79" version="1.1" xmlns="http://www.w3.org/2000/svg" xmlns:xlink="http://www.w3.org/1999/xlink" xmlns:sketch="http://www.bohemiancoding.com/sketch/ns">
    <!-- Generator: Sketch 3.3.2 (12043) - http://www.bohemiancoding.com/sketch -->
    <title>logo_short</title>
    <desc>Created with Sketch.</desc>
    <defs></defs>
    <g id="Page-1" stroke="none" stroke-width="1" fill="none" fill-rule="evenodd" sketch:type="MSPage">
        <g id="Group-Copy-2" sketch:type="MSLayerGroup" fill="#FFFFFF">
            <path d="M110.669224,0.742364982 C120.851894,1.7811549 129.739154,8.40395893 135.598564,16.568345 C143.25995,27.9051098 144.882923,43.2881539 139.130916,55.786129 C133.880122,67.8052546 122.14937,76.8794549 109.058185,78.2441763 C101.814475,78.4716299 94.5707655,78.2322051 87.3151224,78.3040325 C87.3151224,73.7429899 87.3509232,69.169976 87.327056,64.6089333 C93.8308809,64.4173935 100.370507,65.0518692 106.826597,64.2378249 C117.125314,62.7773335 125.502718,54.0143854 127.4837,43.9346009 C128.772531,35.0040554 125.204377,25.2355232 117.519124,20.1956309 C109.046251,13.2283689 97.4348352,15.1317961 87.3031888,14.9163138 C87.3389896,10.0320476 87.327056,5.13581026 87.3389896,0.25154412 C95.1197307,0.25154412 102.924302,-0.0477368942 110.669224,0.742364982 Z" id="Shape" sketch:type="MSShapeGroup"></path>
            <path d="M0.162405817,0.19243855 C4.86425353,0.204702668 9.55416761,0.143382078 14.2560153,0.241495022 C14.1366791,26.2782175 14.2440817,52.302676 14.2082808,78.3393985 C9.50643312,78.3393985 4.80458541,78.3516626 0.102737698,78.3393985 C0.186273064,52.2904118 0.0669368275,26.2414252 0.162405817,0.19243855 L0.162405817,0.19243855 Z" id="Shape" sketch:type="MSShapeGroup"></path>
            <path d="M78.4126392,0.196590877 L78.4126392,14.885303 C70.9302571,15.1247278 63.2450035,14.0952012 55.9535595,16.226082 C45.6548423,19.8533679 36.7881599,30.1845485 38.2559956,41.6529969 C39.0316812,53.7080361 49.5810045,64.0272455 61.5862298,64.601865 C67.1950329,64.7096062 72.7919024,64.5659513 78.4007055,64.601865 C78.4126392,69.1868502 78.4126392,73.7598641 78.4126392,78.3448492 C71.2882658,78.237108 64.1758262,78.4406191 57.0514529,78.2730218 C43.793197,76.8005592 31.6925027,67.7981863 26.51331,55.443866 C18.3626451,37.9179699 25.5228192,14.7416481 42.4685648,5.32028183 C53.1133571,-1.65895141 66.4074138,0.663469259 78.4126392,0.196590877 Z" id="Shape" sketch:type="MSShapeGroup"></path>
            <path d="M87.3031888,24.8730609 C92.1363063,24.9209459 96.9574903,24.9448884 101.790608,24.8730609 C101.707072,34.4620246 101.754807,44.0509883 101.766741,53.6519232 C96.9574903,53.6160095 92.1482399,53.6160095 87.3509232,53.6519232 C87.3389896,44.0509883 87.4105914,34.4620246 87.3031888,24.8730609 L87.3031888,24.8730609 Z" id="Shape" sketch:type="MSShapeGroup"></path>
            <path d="M78.4126392,32.0580471 C78.3410374,36.8465433 78.3649047,41.6350395 78.352971,46.4235357 C68.8060721,46.4714207 59.2591732,46.3756508 49.7122743,46.4714207 C49.724208,41.6948957 49.724208,36.9063995 49.7003407,32.1298745 C59.2711069,32.0221333 68.841873,32.1418457 78.4126392,32.0580471 Z" id="Shape" sketch:type="MSShapeGroup"></path>
        </g>
    </g>
</svg>