<?xml version="1.0" encoding="UTF-8" standalone="no"?>
<svg width="374px" height="75px" viewBox="0 0 374 75" version="1.1" xmlns="http://www.w3.org/2000/svg" xmlns:xlink="http://www.w3.org/1999/xlink" xmlns:sketch="http://www.bohemiancoding.com/sketch/ns">
    <!-- Generator: Sketch 3.3.2 (12043) - http://www.bohemiancoding.com/sketch -->
    <title>logo</title>
    <desc>Created with Sketch.</desc>
    <defs></defs>
    <g id="Page-1" stroke="none" stroke-width="1" fill="none" fill-rule="evenodd" sketch:type="MSPage">
        <g id="Group-Copy-+-INSTITUT--Copy-Copy" sketch:type="MSLayerGroup" transform="translate(0.000000, -2.000000)" fill="#FFFFFF">
            <g id="Group-Copy" transform="translate(0.000000, 2.158796)" sketch:type="MSShapeGroup">
                <path d="M105.135763,0.705246733 C114.809299,1.69209716 123.252197,7.98376099 128.818635,15.7399277 C136.096952,26.5098543 137.638777,41.1237462 132.17437,52.9968226 C127.186116,64.4149918 116.041901,73.0354821 103.605275,74.3319675 C96.7237513,74.5480484 89.8422273,74.3205948 82.9493663,74.3888309 C82.9493663,70.0558404 82.9833771,65.7114772 82.9607032,61.3784867 C89.1393368,61.1965238 95.3519813,61.7992758 101.485267,61.0259336 C111.269048,59.6384668 119.227582,51.3136662 121.109515,41.7378708 C122.333904,33.2538527 118.944159,23.973747 111.643168,19.1858493 C103.593938,12.5669504 92.5630935,14.3752063 82.9380293,14.1704981 C82.9720401,9.53044527 82.9607032,4.87901975 82.9720401,0.238966914 C90.3637441,0.238966914 97.778087,-0.0453500495 105.135763,0.705246733 Z" id="Shape"></path>
                <path d="M0.154285526,0.182816622 C4.62104085,0.194467534 9.07645923,0.136212974 13.5432146,0.229420271 C13.4298451,24.9643067 13.5318776,49.6875422 13.4978668,74.4224286 C9.03111146,74.4224286 4.56435614,74.4340795 0.0976008134,74.4224286 C0.176959411,49.6758912 0.0635899861,24.9293539 0.154285526,0.182816622 L0.154285526,0.182816622 Z" id="Shape"></path>
                <path d="M74.4920072,0.186761333 L74.4920072,14.1410379 C67.3837443,14.3684915 60.0827533,13.3904411 53.1558815,15.4147779 C43.3721002,18.8606995 34.9487519,28.675321 36.3431959,39.5703471 C37.0800971,51.0226343 47.1019542,60.8258832 58.5069183,61.3717718 C63.8352813,61.4741259 69.1523073,61.3376538 74.4806703,61.3717718 C74.4920072,65.7275077 74.4920072,70.0718709 74.4920072,74.4276067 C67.7238526,74.3252526 60.9670349,74.5185882 54.1988802,74.3593707 C41.6035372,72.9605312 30.1078775,64.408277 25.1876445,52.6716727 C17.4445128,36.0220714 24.2466783,14.0045657 40.3451365,5.05426774 C50.4576892,-1.57600384 63.0870431,0.630295796 74.4920072,0.186761333 Z" id="Shape"></path>
                <path d="M82.9380293,23.6294079 C87.529491,23.6748986 92.1096158,23.697644 96.7010774,23.6294079 C96.6217188,32.7389234 96.6670666,41.8484389 96.6784036,50.9693271 C92.1096158,50.935209 87.540828,50.935209 82.9833771,50.9693271 C82.9720401,41.8484389 83.0400618,32.7389234 82.9380293,23.6294079 L82.9380293,23.6294079 Z" id="Shape"></path>
                <path d="M74.4920072,30.4551447 C74.4239855,35.0042161 74.4466594,39.5532875 74.4353225,44.1023589 C65.3657685,44.1478496 56.2962146,44.0568682 47.2266606,44.1478496 C47.2379976,39.6101509 47.2379976,35.0610795 47.2153237,30.5233808 C56.3075515,30.4210267 65.3997794,30.5347535 74.4920072,30.4551447 Z" id="Shape"></path>
            </g>
            <text id="INSTITUT--Copy" sketch:type="MSTextLayer" font-family="Arial Rounded MT Bold" font-size="22.1660631" font-weight="normal">
                <tspan x="169.220043" y="21.1660612">INSTITUT </tspan>
                <tspan x="169.220043" y="47.1660612">D’ENSEIGNEMENT </tspan>
                <tspan x="169.220043" y="73.1660612">À DISTANCE</tspan>
            </text>
        </g>
    </g>
</svg>